<?xml version="1.0" encoding="utf-8"?>
<!-- Generator: Adobe Illustrator 16.0.4, SVG Export Plug-In . SVG Version: 6.00 Build 0)  -->
<!DOCTYPE svg PUBLIC "-//W3C//DTD SVG 1.1//EN" "http://www.w3.org/Graphics/SVG/1.1/DTD/svg11.dtd">
<svg x="0px" y="0px" width="273px" height="130px" viewBox="0 0 386.9 75.201" enable-background="new 0 0 273 130"
	xmlns="http://www.w3.org/2000/svg">
	<g id="svgGroup" stroke-linecap="round" fill-rule="evenodd" font-size="9pt" stroke="#000" stroke-width="0.25mm" fill="#FFFFFF" style="stroke:#000;stroke-width:0.25mm;fill:white">
		<path d="M 73.8 74 L 73.8 0 L 82.8 0 L 82.8 42.3 L 106.3 21 L 111.5 26.7 L 91.4 44.5 L 115.9 69 L 109.7 75 L 82.8 47.3 L 82.8 74 L 73.8 74 Z M 8.1 74.8 L 0 71.5 L 27.4 4 L 37.8 4 L 64.8 71.5 L 56.1 75 L 48.3 55 L 15.9 55 L 8.1 74.8 Z M 347.6 69.8 L 351.4 62.3 A 17.402 17.402 0 0 0 354.752 64.603 A 23.322 23.322 0 0 0 357.95 66 A 24.791 24.791 0 0 0 365.422 67.383 A 28.367 28.367 0 0 0 366.4 67.4 Q 371.792 67.4 374.635 65.685 A 7.738 7.738 0 0 0 374.85 65.55 Q 377.7 63.7 377.7 60.8 A 7.211 7.211 0 0 0 377.316 58.432 A 6.796 6.796 0 0 0 377.15 58 A 5.377 5.377 0 0 0 376.437 56.803 Q 376.049 56.304 375.519 55.821 A 10.185 10.185 0 0 0 375.15 55.5 A 12.59 12.59 0 0 0 373.915 54.607 Q 373.231 54.169 372.402 53.737 A 27.422 27.422 0 0 0 371.2 53.15 Q 369.52 52.377 367.164 51.492 A 115.589 115.589 0 0 0 364.7 50.6 A 47.106 47.106 0 0 1 360.446 48.945 Q 356.175 47.022 353.7 44.65 A 11.347 11.347 0 0 1 350.469 38.736 A 16.941 16.941 0 0 1 350.1 35.1 Q 350.1 32.1 351.45 29.5 A 13.242 13.242 0 0 1 354.436 25.704 A 15.791 15.791 0 0 1 355.35 24.95 A 17.33 17.33 0 0 1 358.766 22.934 A 22.664 22.664 0 0 1 361.55 21.9 A 24.963 24.963 0 0 1 365.692 21.046 A 34.316 34.316 0 0 1 369.9 20.8 Q 374.552 20.8 378.164 21.674 A 24.48 24.48 0 0 1 378.85 21.85 A 38.541 38.541 0 0 1 383.157 23.291 A 31.513 31.513 0 0 1 385.8 24.5 L 383.3 31.9 Q 380.6 30.3 377.15 29.3 A 25.024 25.024 0 0 0 372.667 28.453 A 31.837 31.837 0 0 0 369.5 28.3 A 20.632 20.632 0 0 0 366.563 28.495 Q 363.477 28.94 361.6 30.4 A 9.322 9.322 0 0 0 360.242 31.673 Q 359.54 32.492 359.205 33.365 A 4.529 4.529 0 0 0 358.9 35 A 5.568 5.568 0 0 0 359.094 36.488 A 4.93 4.93 0 0 0 359.35 37.2 Q 359.724 38.032 360.617 38.794 A 7.753 7.753 0 0 0 361 39.1 Q 362.2 40 364.2 40.9 A 38.11 38.11 0 0 0 365.841 41.589 Q 367.325 42.175 369.2 42.8 Q 372.952 44.102 375.824 45.432 A 45.049 45.049 0 0 1 377.5 46.25 A 27.212 27.212 0 0 1 380.215 47.841 Q 381.515 48.713 382.541 49.659 A 15.68 15.68 0 0 1 383 50.1 A 13.836 13.836 0 0 1 384.938 52.502 A 11.394 11.394 0 0 1 386 54.65 A 14.613 14.613 0 0 1 386.794 58.102 A 18.255 18.255 0 0 1 386.9 60.1 A 14.031 14.031 0 0 1 386.371 64.009 A 12.235 12.235 0 0 1 385.4 66.4 Q 383.9 69.2 381.2 71.15 A 17.953 17.953 0 0 1 377.694 73.104 A 23.774 23.774 0 0 1 374.65 74.15 Q 370.8 75.2 366.1 75.2 A 41.103 41.103 0 0 1 360.593 74.848 A 30.514 30.514 0 0 1 355.4 73.7 A 30.72 30.72 0 0 1 351.594 72.215 Q 349.625 71.283 348.044 70.133 A 18.536 18.536 0 0 1 347.6 69.8 Z M 292.7 74 L 292.7 0 L 301.7 0 L 301.7 27.4 A 17.447 17.447 0 0 1 302.671 26.418 Q 303.185 25.936 303.788 25.436 A 29.965 29.965 0 0 1 304.2 25.1 A 19.429 19.429 0 0 1 306.869 23.315 A 22.041 22.041 0 0 1 307.55 22.95 A 18.788 18.788 0 0 1 310.038 21.899 A 23.04 23.04 0 0 1 311.7 21.4 A 18.56 18.56 0 0 1 314.971 20.865 A 22.623 22.623 0 0 1 316.7 20.8 Q 321.2 20.8 325.35 22.6 Q 329.5 24.4 332.65 27.8 A 23.706 23.706 0 0 1 336.246 32.952 A 29.885 29.885 0 0 1 337.7 36.2 Q 339.6 41.2 339.6 47.5 A 33.315 33.315 0 0 1 338.913 54.388 A 27.75 27.75 0 0 1 337.6 58.8 A 30.149 30.149 0 0 1 334.592 64.609 A 25.829 25.829 0 0 1 332.3 67.55 Q 329 71.2 324.75 73.2 A 20.584 20.584 0 0 1 318.154 75.09 A 19.225 19.225 0 0 1 316.1 75.2 A 22.394 22.394 0 0 1 308.177 73.805 A 21.462 21.462 0 0 1 307.65 73.6 Q 303.7 72 301.1 69.7 L 301.1 74 L 292.7 74 Z M 222.5 65.5 L 222.5 74 L 180.9 74 L 180.9 4 L 190.4 4 L 190.4 65.5 L 222.5 65.5 Z M 266.6 26.2 L 266.6 22 L 274.8 22 L 274.8 61.4 A 12.15 12.15 0 0 0 274.902 63.036 Q 275.234 65.47 276.65 66.35 Q 278.5 67.5 280.7 67.5 L 278.8 74.5 A 17.722 17.722 0 0 1 274.535 74.028 Q 268.898 72.628 267.303 67.08 A 13.59 13.59 0 0 1 267.2 66.7 Q 266 68.3 264.45 69.85 A 18.204 18.204 0 0 1 261.156 72.444 A 20.291 20.291 0 0 1 260.9 72.6 A 17.462 17.462 0 0 1 257.767 74.067 A 20.704 20.704 0 0 1 256.4 74.5 A 18.765 18.765 0 0 1 253.08 75.102 A 23.457 23.457 0 0 1 250.9 75.2 Q 246 75.2 241.75 73.3 Q 237.5 71.4 234.35 67.9 A 24.891 24.891 0 0 1 230.493 62.12 A 30.206 30.206 0 0 1 229.35 59.45 Q 227.5 54.5 227.5 48.3 Q 227.5 42.5 229.3 37.45 A 27.784 27.784 0 0 1 232.46 31.144 A 24.797 24.797 0 0 1 234.35 28.7 Q 237.6 25 242.15 22.9 A 23.124 23.124 0 0 1 250.929 20.825 A 27.082 27.082 0 0 1 252.1 20.8 A 22.584 22.584 0 0 1 256.894 21.29 A 18.703 18.703 0 0 1 260.25 22.35 A 26.002 26.002 0 0 1 264.537 24.644 A 22.103 22.103 0 0 1 266.6 26.2 Z M 133.9 22 L 133.9 74 L 124.9 74 L 124.9 22 L 133.9 22 Z M 265.8 60.7 L 265.8 32.8 Q 263.1 30.9 259.85 29.75 Q 256.6 28.6 253 28.6 A 16.142 16.142 0 0 0 248.533 29.203 A 14.448 14.448 0 0 0 246.4 30 Q 243.4 31.4 241.25 33.95 A 17.393 17.393 0 0 0 238.743 37.953 A 21.502 21.502 0 0 0 237.9 40.1 A 23.426 23.426 0 0 0 236.817 45.381 A 28.621 28.621 0 0 0 236.7 48 A 25.723 25.723 0 0 0 237.169 52.996 A 21.781 21.781 0 0 0 237.9 55.75 A 19.283 19.283 0 0 0 239.776 59.774 A 16.545 16.545 0 0 0 241.3 61.85 Q 243.5 64.4 246.45 65.8 A 14.679 14.679 0 0 0 252.249 67.188 A 17.126 17.126 0 0 0 252.9 67.2 Q 256.7 67.2 260.1 65.4 Q 263.5 63.6 265.8 60.7 Z M 301.7 35.4 L 301.7 63.2 A 17.99 17.99 0 0 0 305.33 65.385 A 21.802 21.802 0 0 0 307.1 66.1 A 19.462 19.462 0 0 0 313.264 67.196 A 22.039 22.039 0 0 0 313.7 67.2 A 16.26 16.26 0 0 0 319.518 66.166 A 15.526 15.526 0 0 0 320.4 65.8 Q 323.5 64.4 325.7 61.85 A 17.95 17.95 0 0 0 328.442 57.514 A 21.678 21.678 0 0 0 329.15 55.75 A 21.806 21.806 0 0 0 330.222 50.996 A 27.857 27.857 0 0 0 330.4 47.8 Q 330.4 43.3 329.15 39.75 Q 327.9 36.2 325.75 33.7 Q 323.6 31.2 320.75 29.9 Q 317.9 28.6 314.7 28.6 A 14.741 14.741 0 0 0 309.073 29.663 A 14.054 14.054 0 0 0 306.95 30.75 Q 303.5 32.9 301.7 35.4 Z M 32.1 13.4 L 18.9 47 L 45.2 47 L 32.1 13.4 Z M 125.008 11.307 A 6.059 6.059 0 0 0 129.4 13.1 A 8.264 8.264 0 0 0 131.056 12.942 A 5.661 5.661 0 0 0 134 11.4 A 5.588 5.588 0 0 0 135.471 8.768 A 7.987 7.987 0 0 0 135.7 6.8 A 7.26 7.26 0 0 0 135.7 6.719 A 6.06 6.06 0 0 0 133.85 2.35 A 7.395 7.395 0 0 0 133.792 2.293 A 6.059 6.059 0 0 0 129.4 0.5 A 8.264 8.264 0 0 0 127.744 0.658 A 5.661 5.661 0 0 0 124.8 2.2 A 5.588 5.588 0 0 0 123.329 4.832 A 7.987 7.987 0 0 0 123.1 6.8 A 7.26 7.26 0 0 0 123.1 6.881 A 6.06 6.06 0 0 0 124.95 11.25 A 7.395 7.395 0 0 0 125.008 11.307 Z" vector-effect="non-scaling-stroke"/>
	</g>
</svg>
